Saira-PARAMETRIC-JUN_XTSP150.ufo
<glyph name="zero" format="2">
  <advance width="671.1087"/>
  <unicode hex="0030"/>
  <outline>
    <contour>
      <point x="335.283" y="-8" type="curve" smooth="yes"/>
      <point x="585.891" y="-8"/>
      <point x="594.152" y="48.935"/>
      <point x="594.152" y="344" type="curve" smooth="yes"/>
      <point x="594.152" y="639.065"/>
      <point x="585.891" y="696"/>
      <point x="335.283" y="696" type="curve" smooth="yes"/>
      <point x="84.674" y="696"/>
      <point x="76.413" y="639.065"/>
      <point x="76.413" y="344" type="curve" smooth="yes"/>
      <point x="76.413" y="48.935"/>
      <point x="84.674" y="-8"/>
    </contour>
    <contour>
      <point x="335.283" y="66.217" type="curve" smooth="yes"/>
      <point x="168.326" y="66.217"/>
      <point x="161.87" y="72.587"/>
      <point x="161.87" y="344" type="curve" smooth="yes"/>
      <point x="161.87" y="615.413"/>
      <point x="168.326" y="621.783"/>
      <point x="335.283" y="621.783" type="curve" smooth="yes"/>
      <point x="502.239" y="621.783"/>
      <point x="508.696" y="615.413"/>
      <point x="508.696" y="344" type="curve" smooth="yes"/>
      <point x="508.696" y="72.587"/>
      <point x="502.239" y="66.217"/>
    </contour>
  </outline>
</glyph>
<glyph name="one" format="2">
  <advance width="376.41304"/>
  <unicode hex="0031"/>
  <outline>
    <contour>
      <point x="179.978" y="0" type="line"/>
      <point x="265.978" y="0" type="line"/>
      <point x="265.978" y="688" type="line"/>
      <point x="204.913" y="688" type="line"/>
      <point x="37.5" y="598.37" type="line"/>
      <point x="37.5" y="521.152" type="line"/>
      <point x="179.978" y="589.826" type="line"/>
    </contour>
  </outline>
</glyph>
<glyph name="seven" format="2">
  <advance width="563.43478"/>
  <unicode hex="0037"/>
  <outline>
    <contour>
      <point x="138.717" y="0" type="line"/>
      <point x="234.609" y="0" type="line"/>
      <point x="514.13" y="620.957" type="line"/>
      <point x="514.13" y="688" type="line"/>
      <point x="40.652" y="688" type="line"/>
      <point x="40.652" y="613.239" type="line"/>
      <point x="419.413" y="613.239" type="line"/>
    </contour>
  </outline>
</glyph>
<glyph name="A" format="2">
  <advance width="636"/>
  <unicode hex="0041"/>
  <anchor x="318" y="0" name="bottom"/>
  <anchor x="572" y="10" name="ogonek"/>
  <anchor x="318" y="688" name="top"/>
  <outline>
    <contour>
      <point x="15" y="0" type="line"/>
      <point x="102" y="0" type="line"/>
      <point x="315" y="620" type="line"/>
      <point x="321" y="620" type="line"/>
      <point x="534" y="0" type="line"/>
      <point x="621" y="0" type="line"/>
      <point x="382" y="688" type="line"/>
      <point x="254" y="688" type="line"/>
    </contour>
    <contour>
      <point x="130" y="189" type="line"/>
      <point x="505" y="189" type="line"/>
      <point x="478" y="263" type="line"/>
      <point x="157" y="263" type="line"/>
    </contour>
  </outline>
</glyph>
<glyph name="B" format="2">
  <advance width="792"/>
  <unicode hex="0042"/>
  <anchor x="391" y="0" name="bottom"/>
  <anchor x="391" y="688" name="top"/>
  <outline>
    <contour>
      <point x="150" y="0" type="line"/>
      <point x="416" y="0" type="line" smooth="yes"/>
      <point x="611" y="0"/>
      <point x="664" y="40"/>
      <point x="664" y="190" type="curve" smooth="yes"/>
      <point x="664" y="197" type="line" smooth="yes"/>
      <point x="664" y="335"/>
      <point x="610" y="375"/>
      <point x="416" y="375" type="curve" smooth="yes"/>
      <point x="216" y="375" type="line"/>
      <point x="216" y="315" type="line"/>
      <point x="416" y="315" type="line" smooth="yes"/>
      <point x="557" y="315"/>
      <point x="582" y="299"/>
      <point x="582" y="211" type="curve" smooth="yes"/>
      <point x="582" y="176" type="line" smooth="yes"/>
      <point x="582" y="89"/>
      <point x="557" y="74"/>
      <point x="416" y="74" type="curve" smooth="yes"/>
      <point x="195" y="74" type="line"/>
      <point x="232" y="43" type="line"/>
      <point x="232" y="645" type="line"/>
      <point x="195" y="614" type="line"/>
      <point x="402" y="614" type="line" smooth="yes"/>
      <point x="543" y="614"/>
      <point x="568" y="600"/>
      <point x="568" y="518" type="curve" smooth="yes"/>
      <point x="568" y="483" type="line" smooth="yes"/>
      <point x="568" y="400"/>
      <point x="543" y="385"/>
      <point x="402" y="385" type="curve" smooth="yes"/>
      <point x="216" y="385" type="line"/>
      <point x="216" y="325" type="line"/>
      <point x="402" y="325" type="line" smooth="yes"/>
      <point x="596" y="325"/>
      <point x="650" y="364"/>
      <point x="650" y="497" type="curve" smooth="yes"/>
      <point x="650" y="504" type="line" smooth="yes"/>
      <point x="650" y="649"/>
      <point x="597" y="688"/>
      <point x="402" y="688" type="curve" smooth="yes"/>
      <point x="150" y="688" type="line"/>
    </contour>
  </outline>
</glyph>
<glyph name="C" format="2">
  <advance width="695"/>
  <unicode hex="0043"/>
  <anchor x="322" y="0" name="bottom"/>
  <anchor x="322" y="688" name="top"/>
  <outline>
    <contour>
      <point x="392" y="-8" type="curve" smooth="yes"/>
      <point x="448" y="-8"/>
      <point x="514" y="-3"/>
      <point x="552" y="5" type="curve"/>
      <point x="552" y="76" type="line"/>
      <point x="515" y="70"/>
      <point x="452" y="66"/>
      <point x="392" y="66" type="curve" smooth="yes"/>
      <point x="209" y="66"/>
      <point x="196" y="83"/>
      <point x="196" y="310" type="curve" smooth="yes"/>
      <point x="196" y="378" type="line" smooth="yes"/>
      <point x="196" y="605"/>
      <point x="209" y="622"/>
      <point x="392" y="622" type="curve" smooth="yes"/>
      <point x="449" y="622"/>
      <point x="505" y="618"/>
      <point x="548" y="612" type="curve"/>
      <point x="548" y="681" type="line"/>
      <point x="511" y="690"/>
      <point x="446" y="696"/>
      <point x="392" y="696" type="curve" smooth="yes"/>
      <point x="156" y="696"/>
      <point x="114" y="644"/>
      <point x="114" y="349" type="curve" smooth="yes"/>
      <point x="114" y="339" type="line" smooth="yes"/>
      <point x="114" y="44"/>
      <point x="156" y="-8"/>
    </contour>
  </outline>
</glyph>
<glyph name="D" format="2">
  <advance width="768"/>
  <unicode hex="0044"/>
  <anchor x="390" y="0" name="bottom"/>
  <anchor x="220" y="344" name="center"/>
  <anchor x="390" y="688" name="top"/>
  <outline>
    <contour>
      <point x="150" y="0" type="line"/>
      <point x="376" y="0" type="line" smooth="yes"/>
      <point x="612" y="0"/>
      <point x="654" y="51"/>
      <point x="654" y="339" type="curve" smooth="yes"/>
      <point x="654" y="349" type="line" smooth="yes"/>
      <point x="654" y="637"/>
      <point x="612" y="688"/>
      <point x="376" y="688" type="curve" smooth="yes"/>
      <point x="150" y="688" type="line"/>
    </contour>
    <contour>
      <point x="232" y="37" type="line"/>
      <point x="232" y="651" type="line"/>
      <point x="195" y="614" type="line"/>
      <point x="376" y="614" type="line" smooth="yes"/>
      <point x="559" y="614"/>
      <point x="572" y="597"/>
      <point x="572" y="377" type="curve" smooth="yes"/>
      <point x="572" y="311" type="line" smooth="yes"/>
      <point x="572" y="91"/>
      <point x="559" y="74"/>
      <point x="376" y="74" type="curve" smooth="yes"/>
      <point x="195" y="74" type="line"/>
    </contour>
  </outline>
</glyph>
<glyph name="E" format="2">
  <advance width="668"/>
  <unicode hex="0045"/>
  <anchor x="347" y="0" name="bottom"/>
  <anchor x="584" y="10" name="ogonek"/>
  <anchor x="347" y="688" name="top"/>
  <anchor x="70" y="688" name="topleft"/>
  <outline>
    <contour>
      <point x="195" y="385" type="line"/>
      <point x="195" y="311" type="line"/>
      <point x="546" y="311" type="line"/>
      <point x="546" y="385" type="line"/>
    </contour>
    <contour>
      <point x="232" y="37" type="line"/>
      <point x="232" y="651" type="line"/>
      <point x="195" y="614" type="line"/>
      <point x="593" y="614" type="line"/>
      <point x="593" y="688" type="line"/>
      <point x="150" y="688" type="line"/>
      <point x="150" y="0" type="line"/>
      <point x="593" y="0" type="line"/>
      <point x="593" y="74" type="line"/>
      <point x="195" y="74" type="line"/>
    </contour>
  </outline>
</glyph>
<glyph name="F" format="2">
  <advance width="643"/>
  <unicode hex="0046"/>
  <anchor x="337" y="0" name="bottom"/>
  <anchor x="337" y="688" name="top"/>
  <outline>
    <contour>
      <point x="195" y="375" type="line"/>
      <point x="195" y="301" type="line"/>
      <point x="536" y="301" type="line"/>
      <point x="536" y="375" type="line"/>
    </contour>
    <contour>
      <point x="232" y="0" type="line"/>
      <point x="232" y="651" type="line"/>
      <point x="195" y="614" type="line"/>
      <point x="583" y="614" type="line"/>
      <point x="583" y="688" type="line"/>
      <point x="150" y="688" type="line"/>
      <point x="150" y="0" type="line"/>
    </contour>
  </outline>
</glyph>
<glyph name="G" format="2">
  <advance width="765"/>
  <unicode hex="0047"/>
  <anchor x="378" y="0" name="bottom"/>
  <anchor x="378" y="688" name="top"/>
  <outline>
    <contour>
      <point x="436" y="-8" type="curve" smooth="yes"/>
      <point x="505" y="-8"/>
      <point x="580" y="1"/>
      <point x="622" y="15" type="curve"/>
      <point x="622" y="370" type="line"/>
      <point x="383" y="370" type="line"/>
      <point x="383" y="300" type="line"/>
      <point x="542" y="300" type="line"/>
      <point x="542" y="72" type="line"/>
      <point x="506" y="68"/>
      <point x="469" y="66"/>
      <point x="431" y="66" type="curve" smooth="yes"/>
      <point x="212" y="66"/>
      <point x="196" y="83"/>
      <point x="196" y="310" type="curve" smooth="yes"/>
      <point x="196" y="378" type="line" smooth="yes"/>
      <point x="196" y="605"/>
      <point x="212" y="622"/>
      <point x="431" y="622" type="curve" smooth="yes"/>
      <point x="499" y="622"/>
      <point x="565" y="618"/>
      <point x="617" y="612" type="curve"/>
      <point x="617" y="681" type="line"/>
      <point x="575" y="690"/>
      <point x="499" y="696"/>
      <point x="436" y="696" type="curve" smooth="yes"/>
      <point x="163" y="696"/>
      <point x="114" y="644"/>
      <point x="114" y="349" type="curve" smooth="yes"/>
      <point x="114" y="339" type="line" smooth="yes"/>
      <point x="114" y="44"/>
      <point x="163" y="-8"/>
    </contour>
  </outline>
</glyph>
<glyph name="H" format="2">
  <advance width="814"/>
  <unicode hex="0048"/>
  <anchor x="407" y="0" name="bottom"/>
  <anchor x="407" y="550" name="center"/>
  <anchor x="407" y="688" name="top"/>
  <anchor x="70" y="688" name="topleft"/>
  <outline>
    <contour>
      <point x="150" y="0" type="line"/>
      <point x="232" y="0" type="line"/>
      <point x="232" y="347" type="line"/>
      <point x="195" y="310" type="line"/>
      <point x="619" y="310" type="line"/>
      <point x="582" y="347" type="line"/>
      <point x="582" y="0" type="line"/>
      <point x="664" y="0" type="line"/>
      <point x="664" y="688" type="line"/>
      <point x="582" y="688" type="line"/>
      <point x="582" y="347" type="line"/>
      <point x="619" y="384" type="line"/>
      <point x="195" y="384" type="line"/>
      <point x="232" y="347" type="line"/>
      <point x="232" y="688" type="line"/>
      <point x="150" y="688" type="line"/>
    </contour>
  </outline>
</glyph>
<glyph name="I" format="2">
  <advance width="382"/>
  <unicode hex="0049"/>
  <anchor x="191" y="0" name="bottom"/>
  <anchor x="304" y="10" name="ogonek"/>
  <anchor x="191" y="688" name="top"/>
  <anchor x="70" y="688" name="topleft"/>
  <outline>
    <contour>
      <point x="150" y="0" type="line"/>
      <point x="232" y="0" type="line"/>
      <point x="232" y="688" type="line"/>
      <point x="150" y="688" type="line"/>
    </contour>
  </outline>
</glyph>
<glyph name="J" format="2">
  <advance width="372"/>
  <unicode hex="004A"/>
  <anchor x="186" y="0" name="bottom"/>
  <anchor x="186" y="688" name="top"/>
  <outline>
    <contour>
      <point x="222" y="688" type="line"/>
      <point x="140" y="688" type="line"/>
      <point x="140" y="141" type="line" smooth="yes"/>
      <point x="140" y="78"/>
      <point x="119" y="66"/>
      <point x="8" y="66" type="curve"/>
      <point x="8" y="-4" type="line"/>
      <point x="175" y="-4"/>
      <point x="222" y="29"/>
      <point x="222" y="148" type="curve" smooth="yes"/>
    </contour>
  </outline>
</glyph>
<glyph name="K" format="2">
  <advance width="702"/>
  <unicode hex="004B"/>
  <anchor x="382" y="0" name="bottom"/>
  <anchor x="382" y="688" name="top"/>
  <outline>
    <contour>
      <point x="227" y="313" type="line"/>
      <point x="361" y="313" type="line"/>
      <point x="588" y="0" type="line"/>
      <point x="687" y="0" type="line"/>
      <point x="430" y="350" type="line"/>
      <point x="677" y="688" type="line"/>
      <point x="578" y="688" type="line"/>
      <point x="361" y="387" type="line"/>
      <point x="227" y="387" type="line"/>
    </contour>
    <contour>
      <point x="150" y="0" type="line"/>
      <point x="232" y="0" type="line"/>
      <point x="232" y="688" type="line"/>
      <point x="150" y="688" type="line"/>
    </contour>
  </outline>
</glyph>
<glyph name="L" format="2">
  <advance width="603"/>
  <unicode hex="004C"/>
  <anchor x="322" y="0" name="bottom"/>
  <anchor x="322" y="344" name="center"/>
  <anchor x="322" y="688" name="top"/>
  <anchor x="573" y="688" name="topright"/>
  <outline>
    <contour>
      <point x="150" y="0" type="line"/>
      <point x="573" y="0" type="line"/>
      <point x="573" y="74" type="line"/>
      <point x="195" y="74" type="line"/>
      <point x="232" y="37" type="line"/>
      <point x="232" y="688" type="line"/>
      <point x="150" y="688" type="line"/>
    </contour>
  </outline>
</glyph>
<glyph name="M" format="2">
  <advance width="916"/>
  <unicode hex="004D"/>
  <outline>
    <contour>
      <point x="150" y="0" type="line"/>
      <point x="232" y="0" type="line"/>
      <point x="232" y="585" type="line"/>
      <point x="411" y="0" type="line"/>
      <point x="505" y="0" type="line"/>
      <point x="684" y="585" type="line"/>
      <point x="684" y="0" type="line"/>
      <point x="766" y="0" type="line"/>
      <point x="766" y="688" type="line"/>
      <point x="635" y="688" type="line"/>
      <point x="458" y="105" type="line"/>
      <point x="281" y="688" type="line"/>
      <point x="150" y="688" type="line"/>
    </contour>
  </outline>
</glyph>
<glyph name="N" format="2">
  <advance width="814"/>
  <unicode hex="004E"/>
  <anchor x="407" y="0" name="bottom"/>
  <anchor x="407" y="688" name="top"/>
  <outline>
    <contour>
      <point x="150" y="0" type="line"/>
      <point x="232" y="0" type="line"/>
      <point x="232" y="542" type="line"/>
      <point x="576" y="0" type="line"/>
      <point x="664" y="0" type="line"/>
      <point x="664" y="688" type="line"/>
      <point x="582" y="688" type="line"/>
      <point x="582" y="146" type="line"/>
      <point x="238" y="688" type="line"/>
      <point x="150" y="688" type="line"/>
    </contour>
  </outline>
</glyph>
<glyph name="O" format="2">
  <advance width="784"/>
  <unicode hex="004F"/>
  <anchor x="392" y="-2" name="bottom"/>
  <anchor x="392" y="344" name="center"/>
  <anchor x="675" y="10" name="ogonek"/>
  <anchor x="392" y="688" name="top"/>
  <anchor x="58" y="688" name="topleft"/>
  <anchor x="726" y="688" name="topright"/>
  <outline>
    <contour>
      <point x="392" y="-8" type="curve" smooth="yes"/>
      <point x="628" y="-8"/>
      <point x="670" y="44"/>
      <point x="670" y="339" type="curve" smooth="yes"/>
      <point x="670" y="349" type="line" smooth="yes"/>
      <point x="670" y="644"/>
      <point x="628" y="696"/>
      <point x="392" y="696" type="curve" smooth="yes"/>
      <point x="156" y="696"/>
      <point x="114" y="644"/>
      <point x="114" y="349" type="curve" smooth="yes"/>
      <point x="114" y="339" type="line" smooth="yes"/>
      <point x="114" y="44"/>
      <point x="156" y="-8"/>
    </contour>
    <contour>
      <point x="392" y="66" type="curve" smooth="yes"/>
      <point x="209" y="66"/>
      <point x="196" y="83"/>
      <point x="196" y="310" type="curve" smooth="yes"/>
      <point x="196" y="378" type="line" smooth="yes"/>
      <point x="196" y="605"/>
      <point x="209" y="622"/>
      <point x="392" y="622" type="curve" smooth="yes"/>
      <point x="575" y="622"/>
      <point x="588" y="605"/>
      <point x="588" y="378" type="curve" smooth="yes"/>
      <point x="588" y="310" type="line" smooth="yes"/>
      <point x="588" y="83"/>
      <point x="575" y="66"/>
    </contour>
  </outline>
</glyph>
<glyph name="P" format="2">
  <advance width="650"/>
  <unicode hex="0050"/>
  <anchor x="343" y="0" name="bottom"/>
  <anchor x="343" y="688" name="top"/>
  <outline>
    <contour>
      <point x="150" y="0" type="line"/>
      <point x="232" y="0" type="line"/>
      <point x="232" y="645" type="line"/>
      <point x="195" y="614" type="line"/>
      <point x="357" y="614" type="line" smooth="yes"/>
      <point x="513" y="614"/>
      <point x="523" y="605"/>
      <point x="523" y="485" type="curve" smooth="yes"/>
      <point x="523" y="450" type="line" smooth="yes"/>
      <point x="523" y="330"/>
      <point x="513" y="321"/>
      <point x="357" y="321" type="curve" smooth="yes"/>
      <point x="216" y="321" type="line"/>
      <point x="216" y="247" type="line"/>
      <point x="357" y="247" type="line" smooth="yes"/>
      <point x="568" y="247"/>
      <point x="605" y="280"/>
      <point x="605" y="464" type="curve" smooth="yes"/>
      <point x="605" y="471" type="line" smooth="yes"/>
      <point x="605" y="655"/>
      <point x="568" y="688"/>
      <point x="357" y="688" type="curve" smooth="yes"/>
      <point x="150" y="688" type="line"/>
    </contour>
  </outline>
</glyph>
<glyph name="R" format="2">
  <advance width="723"/>
  <unicode hex="0052"/>
  <anchor x="420" y="0" name="bottom"/>
  <anchor x="420" y="688" name="top"/>
  <outline>
    <contour>
      <point x="150" y="0" type="line"/>
      <point x="232" y="0" type="line"/>
      <point x="232" y="645" type="line"/>
      <point x="195" y="614" type="line"/>
      <point x="367" y="614" type="line" smooth="yes"/>
      <point x="528" y="614"/>
      <point x="533" y="610"/>
      <point x="533" y="494" type="curve" smooth="yes"/>
      <point x="533" y="461" type="line" smooth="yes"/>
      <point x="533" y="345"/>
      <point x="528" y="341"/>
      <point x="367" y="341" type="curve" smooth="yes"/>
      <point x="216" y="341" type="line"/>
      <point x="216" y="267" type="line"/>
      <point x="367" y="267" type="line" smooth="yes"/>
      <point x="577" y="267"/>
      <point x="615" y="298"/>
      <point x="615" y="474" type="curve" smooth="yes"/>
      <point x="615" y="481" type="line" smooth="yes"/>
      <point x="615" y="657"/>
      <point x="577" y="688"/>
      <point x="367" y="688" type="curve" smooth="yes"/>
      <point x="150" y="688" type="line"/>
    </contour>
    <contour>
      <point x="536" y="0" type="line"/>
      <point x="625" y="0" type="line"/>
      <point x="508" y="289" type="line"/>
      <point x="422" y="289" type="line"/>
    </contour>
  </outline>
</glyph>
<glyph name="S" format="2">
  <advance width="706"/>
  <unicode hex="0053"/>
  <anchor x="353" y="0" name="bottom"/>
  <anchor x="353" y="688" name="top"/>
  <outline>
    <contour>
      <point x="358" y="-8" type="curve" smooth="yes"/>
      <point x="543" y="-8"/>
      <point x="600" y="41"/>
      <point x="600" y="198" type="curve" smooth="yes"/>
      <point x="600" y="319"/>
      <point x="564" y="363"/>
      <point x="453" y="375" type="curve" smooth="yes"/>
      <point x="271" y="395" type="line" smooth="yes"/>
      <point x="201" y="404"/>
      <point x="188" y="420"/>
      <point x="188" y="494" type="curve" smooth="yes"/>
      <point x="188" y="601"/>
      <point x="213" y="622"/>
      <point x="344" y="622" type="curve" smooth="yes"/>
      <point x="417" y="622"/>
      <point x="507" y="615"/>
      <point x="572" y="605" type="curve"/>
      <point x="572" y="677" type="line"/>
      <point x="493" y="688"/>
      <point x="404" y="696"/>
      <point x="348" y="696" type="curve" smooth="yes"/>
      <point x="165" y="696"/>
      <point x="106" y="648"/>
      <point x="106" y="496" type="curve" smooth="yes"/>
      <point x="106" y="377"/>
      <point x="145" y="330"/>
      <point x="251" y="319" type="curve" smooth="yes"/>
      <point x="433" y="299" type="line" smooth="yes"/>
      <point x="508" y="289"/>
      <point x="518" y="278"/>
      <point x="518" y="198" type="curve" smooth="yes"/>
      <point x="518" y="88"/>
      <point x="491" y="66"/>
      <point x="360" y="66" type="curve" smooth="yes"/>
      <point x="281" y="66"/>
      <point x="183" y="73"/>
      <point x="112" y="83" type="curve"/>
      <point x="112" y="11" type="line"/>
      <point x="200" y="-1"/>
      <point x="297" y="-8"/>
    </contour>
  </outline>
</glyph>
<glyph name="T" format="2">
  <advance width="532"/>
  <unicode hex="0054"/>
  <anchor x="271" y="0" name="bottom"/>
  <anchor x="271" y="344" name="center"/>
  <anchor x="271" y="688" name="top"/>
  <outline>
    <contour>
      <point x="225" y="0" type="line"/>
      <point x="307" y="0" type="line"/>
      <point x="307" y="649" type="line"/>
      <point x="272" y="612" type="line"/>
      <point x="517" y="612" type="line"/>
      <point x="517" y="688" type="line"/>
      <point x="15" y="688" type="line"/>
      <point x="15" y="612" type="line"/>
      <point x="260" y="612" type="line"/>
      <point x="225" y="649" type="line"/>
    </contour>
  </outline>
</glyph>
<glyph name="U" format="2">
  <advance width="800"/>
  <unicode hex="0055"/>
  <anchor x="400" y="0" name="bottom"/>
  <anchor x="682" y="10" name="ogonek"/>
  <anchor x="400" y="688" name="top"/>
  <anchor x="732" y="688" name="topright"/>
  <outline>
    <contour>
      <point x="400" y="-8" type="curve" smooth="yes"/>
      <point x="618" y="-8"/>
      <point x="657" y="50"/>
      <point x="657" y="326" type="curve" smooth="yes"/>
      <point x="657" y="688" type="line"/>
      <point x="575" y="688" type="line"/>
      <point x="575" y="297" type="line" smooth="yes"/>
      <point x="575" y="91"/>
      <point x="563" y="68"/>
      <point x="400" y="68" type="curve" smooth="yes"/>
      <point x="237" y="68"/>
      <point x="225" y="91"/>
      <point x="225" y="297" type="curve" smooth="yes"/>
      <point x="225" y="688" type="line"/>
      <point x="143" y="688" type="line"/>
      <point x="143" y="326" type="line" smooth="yes"/>
      <point x="143" y="51"/>
      <point x="182" y="-8"/>
    </contour>
  </outline>
</glyph>
<glyph name="V" format="2">
  <advance width="588"/>
  <unicode hex="0056"/>
  <outline>
    <contour>
      <point x="235" y="0" type="line"/>
      <point x="353" y="0" type="line"/>
      <point x="573" y="688" type="line"/>
      <point x="487" y="688" type="line"/>
      <point x="294" y="76" type="line"/>
      <point x="101" y="688" type="line"/>
      <point x="15" y="688" type="line"/>
    </contour>
  </outline>
</glyph>
<glyph name="W" format="2">
  <advance width="742"/>
  <unicode hex="0057"/>
  <outline>
    <contour>
      <point x="144" y="0" type="line"/>
      <point x="267" y="0" type="line"/>
      <point x="371" y="583" type="line"/>
      <point x="475" y="0" type="line"/>
      <point x="598" y="0" type="line"/>
      <point x="727" y="688" type="line"/>
      <point x="645" y="688" type="line"/>
      <point x="536" y="103" type="line"/>
      <point x="429" y="688" type="line"/>
      <point x="313" y="688" type="line"/>
      <point x="206" y="103" type="line"/>
      <point x="97" y="688" type="line"/>
      <point x="15" y="688" type="line"/>
    </contour>
  </outline>
</glyph>
<glyph name="X" format="2">
  <advance width="614"/>
  <unicode hex="0058"/>
  <anchor x="304" y="0" name="bottom"/>
  <anchor x="304" y="510" name="top"/>
  <outline>
    <contour>
      <point x="486" y="0" type="line"/>
      <point x="584" y="0" type="line"/>
      <point x="138" y="688" type="line"/>
      <point x="40" y="688" type="line"/>
    </contour>
    <contour>
      <point x="30" y="0" type="line"/>
      <point x="128" y="0" type="line"/>
      <point x="574" y="688" type="line"/>
      <point x="476" y="688" type="line"/>
    </contour>
  </outline>
</glyph>
<glyph name="Y" format="2">
  <advance width="566"/>
  <unicode hex="0059"/>
  <anchor x="284" y="0" name="bottom"/>
  <anchor x="284" y="688" name="top"/>
  <anchor x="-9" y="688" name="topleft"/>
  <outline>
    <contour>
      <point x="242" y="0" type="line"/>
      <point x="324" y="0" type="line"/>
      <point x="324" y="300" type="line"/>
      <point x="305" y="231" type="line"/>
      <point x="551" y="688" type="line"/>
      <point x="458" y="688" type="line"/>
      <point x="283" y="350" type="line"/>
      <point x="108" y="688" type="line"/>
      <point x="15" y="688" type="line"/>
      <point x="261" y="231" type="line"/>
      <point x="242" y="300" type="line"/>
    </contour>
  </outline>
</glyph>
<glyph name="grave" format="2">
  <advance width="188.86956"/>
  <unicode hex="0060"/>
  <outline>
    <contour>
      <point x="128.717" y="594.587" type="line"/>
      <point x="188.87" y="594.587" type="line"/>
      <point x="188.87" y="599.587" type="line"/>
      <point x="87.848" y="734.848" type="line"/>
      <point x="0" y="734.848" type="line"/>
      <point x="0" y="729.848" type="line"/>
    </contour>
  </outline>
</glyph>
<glyph name="d" format="2">
  <advance width="704"/>
  <unicode hex="0064"/>
  <anchor x="310" y="0" name="bottom"/>
  <anchor x="464" y="594" name="center"/>
  <anchor x="310" y="510" name="top"/>
  <anchor x="519" y="743" name="topright"/>
  <outline>
    <contour>
      <point x="289" y="-8" type="curve" smooth="yes"/>
      <point x="387" y="-8"/>
      <point x="443" y="17"/>
      <point x="468" y="73" type="curve"/>
      <point x="472" y="73" type="line"/>
      <point x="481" y="0" type="line"/>
      <point x="554" y="0" type="line"/>
      <point x="554" y="743" type="line"/>
      <point x="472" y="743" type="line"/>
      <point x="472" y="437" type="line"/>
      <point x="468" y="437" type="line"/>
      <point x="443" y="493"/>
      <point x="387" y="518"/>
      <point x="289" y="518" type="curve" smooth="yes"/>
      <point x="132" y="518"/>
      <point x="105" y="479"/>
      <point x="105" y="259" type="curve" smooth="yes"/>
      <point x="105" y="251" type="line" smooth="yes"/>
      <point x="105" y="31"/>
      <point x="132" y="-8"/>
    </contour>
    <contour>
      <point x="309" y="62" type="curve" smooth="yes"/>
      <point x="205" y="62"/>
      <point x="187" y="83"/>
      <point x="187" y="203" type="curve" smooth="yes"/>
      <point x="187" y="307" type="line" smooth="yes"/>
      <point x="187" y="427"/>
      <point x="205" y="448"/>
      <point x="309" y="448" type="curve" smooth="yes"/>
      <point x="443" y="448"/>
      <point x="472" y="415"/>
      <point x="472" y="266" type="curve" smooth="yes"/>
      <point x="472" y="244" type="line" smooth="yes"/>
      <point x="472" y="95"/>
      <point x="443" y="62"/>
    </contour>
  </outline>
</glyph>
<glyph name="e" format="2">
  <advance width="633"/>
  <unicode hex="0065"/>
  <anchor x="318" y="0" name="bottom"/>
  <anchor x="544" y="10" name="ogonek"/>
  <anchor x="318" y="510" name="top"/>
  <outline>
    <contour>
      <point x="324" y="-8" type="curve" smooth="yes"/>
      <point x="395" y="-8"/>
      <point x="479" y="0"/>
      <point x="525" y="12" type="curve"/>
      <point x="525" y="80" type="line"/>
      <point x="471" y="69"/>
      <point x="388" y="62"/>
      <point x="324" y="62" type="curve" smooth="yes"/>
      <point x="196" y="62"/>
      <point x="187" y="74"/>
      <point x="187" y="231" type="curve" smooth="yes"/>
      <point x="187" y="279" type="line" smooth="yes"/>
      <point x="187" y="436"/>
      <point x="196" y="448"/>
      <point x="324" y="448" type="curve" smooth="yes"/>
      <point x="447" y="448"/>
      <point x="456" y="436"/>
      <point x="456" y="279" type="curve" smooth="yes"/>
      <point x="456" y="251" type="line"/>
      <point x="494" y="286" type="line"/>
      <point x="145" y="286" type="line"/>
      <point x="145" y="216" type="line"/>
      <point x="538" y="216" type="line"/>
      <point x="538" y="259" type="line" smooth="yes"/>
      <point x="538" y="479"/>
      <point x="506" y="518"/>
      <point x="324" y="518" type="curve" smooth="yes"/>
      <point x="138" y="518"/>
      <point x="105" y="479"/>
      <point x="105" y="259" type="curve" smooth="yes"/>
      <point x="105" y="251" type="line" smooth="yes"/>
      <point x="105" y="31"/>
      <point x="138" y="-8"/>
    </contour>
  </outline>
</glyph>
<glyph name="f" format="2">
  <advance width="355"/>
  <unicode hex="0066"/>
  <anchor x="190" y="0" name="bottom"/>
  <anchor x="190" y="743" name="top"/>
  <outline>
    <contour>
      <point x="133" y="0" type="line"/>
      <point x="215" y="0" type="line"/>
      <point x="215" y="598" type="line" smooth="yes"/>
      <point x="215" y="661"/>
      <point x="236" y="673"/>
      <point x="347" y="673" type="curve"/>
      <point x="347" y="743" type="line"/>
      <point x="180" y="743"/>
      <point x="133" y="710"/>
      <point x="133" y="591" type="curve" smooth="yes"/>
    </contour>
    <contour>
      <point x="30" y="440" type="line"/>
      <point x="150" y="440" type="line"/>
      <point x="150" y="510" type="line"/>
      <point x="30" y="510" type="line"/>
    </contour>
    <contour>
      <point x="199" y="440" type="line"/>
      <point x="347" y="440" type="line"/>
      <point x="347" y="510" type="line"/>
      <point x="199" y="510" type="line"/>
    </contour>
  </outline>
</glyph>
<glyph name="g" format="2">
  <advance width="704"/>
  <unicode hex="0067"/>
  <anchor x="336" y="-200" name="bottom"/>
  <anchor x="499" y="-84" name="center"/>
  <anchor x="336" y="510" name="top"/>
  <outline>
    <contour>
      <point x="339" y="-208" type="curve" smooth="yes"/>
      <point x="522" y="-208"/>
      <point x="554" y="-169"/>
      <point x="554" y="51" type="curve" smooth="yes"/>
      <point x="554" y="510" type="line"/>
      <point x="481" y="510" type="line"/>
      <point x="472" y="437" type="line"/>
      <point x="468" y="437" type="line"/>
      <point x="443" y="493"/>
      <point x="387" y="518"/>
      <point x="289" y="518" type="curve" smooth="yes"/>
      <point x="132" y="518"/>
      <point x="105" y="479"/>
      <point x="105" y="259" type="curve" smooth="yes"/>
      <point x="105" y="251" type="line" smooth="yes"/>
      <point x="105" y="31"/>
      <point x="132" y="-8"/>
      <point x="289" y="-8" type="curve" smooth="yes"/>
      <point x="387" y="-8"/>
      <point x="443" y="17"/>
      <point x="468" y="73" type="curve"/>
      <point x="472" y="73" type="line"/>
      <point x="472" y="31" type="line" smooth="yes"/>
      <point x="472" y="-126"/>
      <point x="463" y="-138"/>
      <point x="339" y="-138" type="curve" smooth="yes"/>
      <point x="268" y="-138"/>
      <point x="209" y="-134"/>
      <point x="152" y="-125" type="curve"/>
      <point x="152" y="-193" type="line"/>
      <point x="221" y="-203"/>
      <point x="281" y="-208"/>
    </contour>
    <contour>
      <point x="309" y="62" type="curve" smooth="yes"/>
      <point x="205" y="62"/>
      <point x="187" y="83"/>
      <point x="187" y="203" type="curve" smooth="yes"/>
      <point x="187" y="307" type="line" smooth="yes"/>
      <point x="187" y="427"/>
      <point x="205" y="448"/>
      <point x="309" y="448" type="curve" smooth="yes"/>
      <point x="443" y="448"/>
      <point x="472" y="415"/>
      <point x="472" y="266" type="curve" smooth="yes"/>
      <point x="472" y="244" type="line" smooth="yes"/>
      <point x="472" y="95"/>
      <point x="443" y="62"/>
    </contour>
  </outline>
</glyph>
<glyph name="h" format="2">
  <advance width="721"/>
  <unicode hex="0068"/>
  <anchor x="362" y="0" name="bottom"/>
  <anchor x="362" y="510" name="top"/>
  <outline>
    <contour>
      <point x="150" y="0" type="line"/>
      <point x="232" y="0" type="line"/>
      <point x="232" y="269" type="line" smooth="yes"/>
      <point x="232" y="415"/>
      <point x="259" y="448"/>
      <point x="383" y="448" type="curve" smooth="yes"/>
      <point x="479" y="448"/>
      <point x="496" y="427"/>
      <point x="496" y="307" type="curve" smooth="yes"/>
      <point x="496" y="0" type="line"/>
      <point x="578" y="0" type="line"/>
      <point x="578" y="319" type="line" smooth="yes"/>
      <point x="578" y="463"/>
      <point x="530" y="518"/>
      <point x="405" y="518" type="curve" smooth="yes"/>
      <point x="309" y="518"/>
      <point x="256" y="493"/>
      <point x="232" y="437" type="curve"/>
      <point x="232" y="743" type="line"/>
      <point x="150" y="743" type="line"/>
    </contour>
  </outline>
</glyph>
<glyph name="i" format="2">
  <advance width="382"/>
  <unicode hex="0069"/>
  <anchor x="141" y="0" name="bottom"/>
  <anchor x="232" y="0" name="ogonek"/>
  <anchor x="191" y="716" name="top"/>
  <outline>
    <contour>
      <point x="150" y="0" type="line"/>
      <point x="232" y="0" type="line"/>
      <point x="232" y="510" type="line"/>
      <point x="150" y="510" type="line"/>
    </contour>
    <contour>
      <point x="147" y="628" type="line"/>
      <point x="235" y="628" type="line"/>
      <point x="235" y="716" type="line"/>
      <point x="147" y="716" type="line"/>
    </contour>
  </outline>
</glyph>
<glyph name="j" format="2">
  <advance width="382"/>
  <unicode hex="006A"/>
  <anchor x="191" y="-200" name="bottom"/>
  <anchor x="191" y="716" name="top"/>
  <outline>
    <contour>
      <point x="232" y="510" type="line"/>
      <point x="150" y="510" type="line"/>
      <point x="150" y="-55" type="line" smooth="yes"/>
      <point x="150" y="-118"/>
      <point x="129" y="-130"/>
      <point x="18" y="-130" type="curve"/>
      <point x="18" y="-200" type="line"/>
      <point x="185" y="-200"/>
      <point x="232" y="-167"/>
      <point x="232" y="-48" type="curve" smooth="yes"/>
    </contour>
    <contour>
      <point x="147" y="628" type="line"/>
      <point x="235" y="628" type="line"/>
      <point x="235" y="716" type="line"/>
      <point x="147" y="716" type="line"/>
    </contour>
  </outline>
</glyph>
<glyph name="k" format="2">
  <advance width="621"/>
  <unicode hex="006B"/>
  <anchor x="341" y="0" name="bottom"/>
  <anchor x="341" y="510" name="top"/>
  <outline>
    <contour>
      <point x="232" y="225" type="line"/>
      <point x="356" y="225" type="line"/>
      <point x="502" y="0" type="line"/>
      <point x="598" y="0" type="line"/>
      <point x="429" y="260" type="line"/>
      <point x="595" y="510" type="line"/>
      <point x="499" y="510" type="line"/>
      <point x="356" y="295" type="line"/>
      <point x="232" y="295" type="line"/>
    </contour>
    <contour>
      <point x="150" y="0" type="line"/>
      <point x="232" y="0" type="line"/>
      <point x="232" y="743" type="line"/>
      <point x="150" y="743" type="line"/>
    </contour>
  </outline>
</glyph>
<glyph name="l" format="2">
  <advance width="382"/>
  <unicode hex="006C"/>
  <anchor x="191" y="0" name="bottom"/>
  <anchor x="191" y="372" name="center"/>
  <anchor x="191" y="743" name="top"/>
  <anchor x="232" y="743" name="topright"/>
  <outline>
    <contour>
      <point x="150" y="0" type="line"/>
      <point x="232" y="0" type="line"/>
      <point x="232" y="743" type="line"/>
      <point x="150" y="743" type="line"/>
    </contour>
  </outline>
</glyph>
<glyph name="m" format="2">
  <advance width="1067"/>
  <unicode hex="006D"/>
  <anchor x="362" y="0" name="bottom"/>
  <anchor x="362" y="510" name="top"/>
  <outline>
    <contour>
      <point x="150" y="0" type="line"/>
      <point x="232" y="0" type="line"/>
      <point x="232" y="266" type="line" smooth="yes"/>
      <point x="232" y="415"/>
      <point x="259" y="448"/>
      <point x="383" y="448" type="curve" smooth="yes"/>
      <point x="479" y="448"/>
      <point x="496" y="427"/>
      <point x="496" y="307" type="curve" smooth="yes"/>
      <point x="496" y="0" type="line"/>
      <point x="578" y="0" type="line"/>
      <point x="578" y="266" type="line" smooth="yes"/>
      <point x="578" y="415"/>
      <point x="605" y="448"/>
      <point x="729" y="448" type="curve" smooth="yes"/>
      <point x="825" y="448"/>
      <point x="842" y="427"/>
      <point x="842" y="307" type="curve" smooth="yes"/>
      <point x="842" y="0" type="line"/>
      <point x="924" y="0" type="line"/>
      <point x="924" y="319" type="line" smooth="yes"/>
      <point x="924" y="472"/>
      <point x="884" y="518"/>
      <point x="751" y="518" type="curve" smooth="yes"/>
      <point x="655" y="518"/>
      <point x="599" y="493"/>
      <point x="569" y="437" type="curve"/>
      <point x="565" y="437" type="line"/>
      <point x="543" y="499"/>
      <point x="495" y="518"/>
      <point x="405" y="518" type="curve" smooth="yes"/>
      <point x="310" y="518"/>
      <point x="257" y="493"/>
      <point x="233" y="437" type="curve"/>
      <point x="229" y="437" type="line"/>
      <point x="220" y="510" type="line"/>
      <point x="150" y="510" type="line"/>
    </contour>
  </outline>
</glyph>
<glyph name="n" format="2">
  <advance width="721"/>
  <unicode hex="006E"/>
  <anchor x="362" y="0" name="bottom"/>
  <anchor x="362" y="510" name="top"/>
  <outline>
    <contour>
      <point x="150" y="0" type="line"/>
      <point x="232" y="0" type="line"/>
      <point x="232" y="269" type="line" smooth="yes"/>
      <point x="232" y="415"/>
      <point x="259" y="448"/>
      <point x="383" y="448" type="curve" smooth="yes"/>
      <point x="479" y="448"/>
      <point x="496" y="427"/>
      <point x="496" y="307" type="curve" smooth="yes"/>
      <point x="496" y="0" type="line"/>
      <point x="578" y="0" type="line"/>
      <point x="578" y="319" type="line" smooth="yes"/>
      <point x="578" y="463"/>
      <point x="530" y="518"/>
      <point x="405" y="518" type="curve" smooth="yes"/>
      <point x="310" y="518"/>
      <point x="257" y="493"/>
      <point x="233" y="437" type="curve"/>
      <point x="229" y="437" type="line"/>
      <point x="220" y="510" type="line"/>
      <point x="150" y="510" type="line"/>
    </contour>
  </outline>
</glyph>
<glyph name="p" format="2">
  <advance width="704"/>
  <unicode hex="0070"/>
  <anchor x="395" y="0" name="bottom"/>
  <anchor x="205" y="-84" name="center"/>
  <anchor x="395" y="510" name="top"/>
  <outline>
    <contour>
      <point x="150" y="-233" type="line"/>
      <point x="232" y="-233" type="line"/>
      <point x="232" y="73" type="line"/>
      <point x="236" y="73" type="line"/>
      <point x="261" y="17"/>
      <point x="317" y="-8"/>
      <point x="415" y="-8" type="curve" smooth="yes"/>
      <point x="572" y="-8"/>
      <point x="599" y="31"/>
      <point x="599" y="251" type="curve" smooth="yes"/>
      <point x="599" y="259" type="line" smooth="yes"/>
      <point x="599" y="479"/>
      <point x="572" y="518"/>
      <point x="415" y="518" type="curve" smooth="yes"/>
      <point x="317" y="518"/>
      <point x="261" y="493"/>
      <point x="236" y="437" type="curve"/>
      <point x="232" y="437" type="line"/>
      <point x="223" y="510" type="line"/>
      <point x="150" y="510" type="line"/>
    </contour>
    <contour>
      <point x="395" y="62" type="curve" smooth="yes"/>
      <point x="261" y="62"/>
      <point x="232" y="95"/>
      <point x="232" y="244" type="curve" smooth="yes"/>
      <point x="232" y="266" type="line" smooth="yes"/>
      <point x="232" y="415"/>
      <point x="261" y="448"/>
      <point x="395" y="448" type="curve" smooth="yes"/>
      <point x="499" y="448"/>
      <point x="517" y="427"/>
      <point x="517" y="307" type="curve" smooth="yes"/>
      <point x="517" y="203" type="line" smooth="yes"/>
      <point x="517" y="83"/>
      <point x="499" y="62"/>
    </contour>
  </outline>
</glyph>
<glyph name="q" format="2">
  <advance width="704"/>
  <unicode hex="0071"/>
  <anchor x="310" y="0" name="bottom"/>
  <anchor x="499" y="-84" name="center"/>
  <anchor x="310" y="510" name="top"/>
  <outline>
    <contour>
      <point x="472" y="-233" type="line"/>
      <point x="554" y="-233" type="line"/>
      <point x="554" y="510" type="line"/>
      <point x="481" y="510" type="line"/>
      <point x="472" y="437" type="line"/>
      <point x="468" y="437" type="line"/>
      <point x="443" y="493"/>
      <point x="387" y="518"/>
      <point x="289" y="518" type="curve" smooth="yes"/>
      <point x="132" y="518"/>
      <point x="105" y="479"/>
      <point x="105" y="259" type="curve" smooth="yes"/>
      <point x="105" y="251" type="line" smooth="yes"/>
      <point x="105" y="31"/>
      <point x="132" y="-8"/>
      <point x="289" y="-8" type="curve" smooth="yes"/>
      <point x="387" y="-8"/>
      <point x="443" y="17"/>
      <point x="468" y="73" type="curve"/>
      <point x="472" y="73" type="line"/>
    </contour>
    <contour>
      <point x="309" y="62" type="curve" smooth="yes"/>
      <point x="205" y="62"/>
      <point x="187" y="83"/>
      <point x="187" y="203" type="curve" smooth="yes"/>
      <point x="187" y="307" type="line" smooth="yes"/>
      <point x="187" y="427"/>
      <point x="205" y="448"/>
      <point x="309" y="448" type="curve" smooth="yes"/>
      <point x="443" y="448"/>
      <point x="472" y="415"/>
      <point x="472" y="266" type="curve" smooth="yes"/>
      <point x="472" y="244" type="line" smooth="yes"/>
      <point x="472" y="95"/>
      <point x="443" y="62"/>
    </contour>
  </outline>
</glyph>
<glyph name="r" format="2">
  <advance width="463"/>
  <unicode hex="0072"/>
  <anchor x="250" y="0" name="bottom"/>
  <anchor x="250" y="510" name="top"/>
  <outline>
    <contour>
      <point x="150" y="0" type="line"/>
      <point x="232" y="0" type="line"/>
      <point x="232" y="266" type="line" smooth="yes"/>
      <point x="232" y="415"/>
      <point x="262" y="448"/>
      <point x="398" y="448" type="curve" smooth="yes"/>
      <point x="420" y="448" type="line"/>
      <point x="420" y="518" type="line"/>
      <point x="316" y="518"/>
      <point x="260" y="493"/>
      <point x="233" y="437" type="curve"/>
      <point x="229" y="437" type="line"/>
      <point x="220" y="510" type="line"/>
      <point x="150" y="510" type="line"/>
    </contour>
  </outline>
</glyph>
<glyph name="s" format="2">
  <advance width="567"/>
  <unicode hex="0073"/>
  <anchor x="284" y="0" name="bottom"/>
  <anchor x="284" y="510" name="top"/>
  <outline>
    <contour>
      <point x="282" y="-8" type="curve" smooth="yes"/>
      <point x="425" y="-8"/>
      <point x="469" y="28"/>
      <point x="469" y="146" type="curve" smooth="yes"/>
      <point x="469" y="241"/>
      <point x="442" y="275"/>
      <point x="355" y="286" type="curve" smooth="yes"/>
      <point x="239" y="300" type="line" smooth="yes"/>
      <point x="189" y="306"/>
      <point x="180" y="316"/>
      <point x="180" y="367" type="curve" smooth="yes"/>
      <point x="180" y="435"/>
      <point x="198" y="448"/>
      <point x="293" y="448" type="curve" smooth="yes"/>
      <point x="341" y="448"/>
      <point x="402" y="443"/>
      <point x="447" y="435" type="curve"/>
      <point x="447" y="503" type="line"/>
      <point x="387" y="513"/>
      <point x="324" y="518"/>
      <point x="285" y="518" type="curve" smooth="yes"/>
      <point x="143" y="518"/>
      <point x="98" y="482"/>
      <point x="98" y="368" type="curve" smooth="yes"/>
      <point x="98" y="276"/>
      <point x="127" y="239"/>
      <point x="210" y="229" type="curve" smooth="yes"/>
      <point x="326" y="215" type="line" smooth="yes"/>
      <point x="381" y="208"/>
      <point x="387" y="200"/>
      <point x="387" y="146" type="curve" smooth="yes"/>
      <point x="387" y="76"/>
      <point x="368" y="62"/>
      <point x="273" y="62" type="curve" smooth="yes"/>
      <point x="220" y="62"/>
      <point x="153" y="67"/>
      <point x="103" y="75" type="curve"/>
      <point x="103" y="7" type="line"/>
      <point x="169" y="-3"/>
      <point x="239" y="-8"/>
    </contour>
  </outline>
</glyph>
<glyph name="t" format="2">
  <advance width="355"/>
  <unicode hex="0074"/>
  <anchor x="190" y="0" name="bottom"/>
  <anchor x="190" y="743" name="top"/>
  <outline>
    <contour>
      <point x="133" y="0" type="line"/>
      <point x="215" y="0" type="line"/>
      <point x="215" y="688" type="line"/>
      <point x="133" y="688" type="line"/>
    </contour>
    <contour>
      <point x="30" y="440" type="line"/>
      <point x="150" y="440" type="line"/>
      <point x="150" y="510" type="line"/>
      <point x="30" y="510" type="line"/>
    </contour>
    <contour>
      <point x="199" y="440" type="line"/>
      <point x="347" y="440" type="line"/>
      <point x="347" y="510" type="line"/>
      <point x="199" y="510" type="line"/>
    </contour>
  </outline>
</glyph>
<glyph name="u" format="2">
  <advance width="721"/>
  <unicode hex="0075"/>
  <anchor x="361" y="0" name="bottom"/>
  <anchor x="649" y="10" name="ogonek"/>
  <anchor x="361" y="510" name="top"/>
  <anchor x="701" y="510" name="topright"/>
  <outline>
    <contour>
      <point x="571" y="510" type="line"/>
      <point x="489" y="510" type="line"/>
      <point x="489" y="241" type="line" smooth="yes"/>
      <point x="489" y="95"/>
      <point x="462" y="62"/>
      <point x="338" y="62" type="curve" smooth="yes"/>
      <point x="242" y="62"/>
      <point x="225" y="83"/>
      <point x="225" y="203" type="curve" smooth="yes"/>
      <point x="225" y="510" type="line"/>
      <point x="143" y="510" type="line"/>
      <point x="143" y="191" type="line" smooth="yes"/>
      <point x="143" y="47"/>
      <point x="191" y="-8"/>
      <point x="316" y="-8" type="curve" smooth="yes"/>
      <point x="411" y="-8"/>
      <point x="464" y="17"/>
      <point x="488" y="73" type="curve"/>
      <point x="492" y="73" type="line"/>
      <point x="501" y="0" type="line"/>
      <point x="571" y="0" type="line"/>
    </contour>
  </outline>
</glyph>
<glyph name="v" format="2">
  <advance width="554"/>
  <unicode hex="0076"/>
  <anchor x="276" y="0" name="bottom"/>
  <anchor x="276" y="510" name="top"/>
  <outline>
    <contour>
      <point x="232" y="0" type="line"/>
      <point x="322" y="0" type="line"/>
      <point x="516" y="510" type="line"/>
      <point x="431" y="510" type="line"/>
      <point x="279" y="90" type="line"/>
      <point x="275" y="90" type="line"/>
      <point x="123" y="510" type="line"/>
      <point x="38" y="510" type="line"/>
    </contour>
  </outline>
</glyph>
<glyph name="w" format="2">
  <advance width="704"/>
  <unicode hex="0077"/>
  <anchor x="354" y="0" name="bottom"/>
  <anchor x="354" y="510" name="top"/>
  <outline>
    <contour>
      <point x="138" y="0" type="line"/>
      <point x="259" y="0" type="line"/>
      <point x="352" y="428" type="line"/>
      <point x="445" y="0" type="line"/>
      <point x="566" y="0" type="line"/>
      <point x="666" y="510" type="line"/>
      <point x="582" y="510" type="line"/>
      <point x="507" y="90" type="line"/>
      <point x="503" y="90" type="line"/>
      <point x="411" y="510" type="line"/>
      <point x="293" y="510" type="line"/>
      <point x="201" y="90" type="line"/>
      <point x="197" y="90" type="line"/>
      <point x="122" y="510" type="line"/>
      <point x="38" y="510" type="line"/>
    </contour>
  </outline>
</glyph>
<glyph name="x" format="2">
  <advance width="522"/>
  <unicode hex="0078"/>
  <anchor x="258" y="0" name="bottom"/>
  <anchor x="258" y="510" name="top"/>
  <outline>
    <contour>
      <point x="393" y="0" type="line"/>
      <point x="492" y="0" type="line"/>
      <point x="128" y="510" type="line"/>
      <point x="30" y="510" type="line"/>
    </contour>
    <contour>
      <point x="30" y="0" type="line"/>
      <point x="129" y="0" type="line"/>
      <point x="492" y="510" type="line"/>
      <point x="393" y="510" type="line"/>
    </contour>
  </outline>
</glyph>
<glyph name="y" format="2">
  <advance width="721"/>
  <unicode hex="0079"/>
  <anchor x="360" y="0" name="bottom"/>
  <anchor x="360" y="510" name="top"/>
  <outline>
    <contour>
      <point x="366" y="-208" type="curve" smooth="yes"/>
      <point x="540" y="-208"/>
      <point x="571" y="-169"/>
      <point x="571" y="51" type="curve" smooth="yes"/>
      <point x="571" y="510" type="line"/>
      <point x="489" y="510" type="line"/>
      <point x="489" y="244" type="line" smooth="yes"/>
      <point x="489" y="95"/>
      <point x="472" y="62"/>
      <point x="338" y="62" type="curve" smooth="yes"/>
      <point x="234" y="62"/>
      <point x="225" y="83"/>
      <point x="225" y="203" type="curve" smooth="yes"/>
      <point x="225" y="510" type="line"/>
      <point x="143" y="510" type="line"/>
      <point x="143" y="251" type="line" smooth="yes"/>
      <point x="143" y="31"/>
      <point x="159" y="-8"/>
      <point x="316" y="-8" type="curve" smooth="yes"/>
      <point x="414" y="-8"/>
      <point x="460" y="17"/>
      <point x="485" y="73" type="curve"/>
      <point x="489" y="73" type="line"/>
      <point x="489" y="31" type="line" smooth="yes"/>
      <point x="489" y="-126"/>
      <point x="481" y="-138"/>
      <point x="363" y="-138" type="curve" smooth="yes"/>
      <point x="303" y="-138"/>
      <point x="226" y="-131"/>
      <point x="175" y="-120" type="curve"/>
      <point x="175" y="-188" type="line"/>
      <point x="219" y="-200"/>
      <point x="298" y="-208"/>
    </contour>
  </outline>
</glyph>
<glyph name="z" format="2">
  <advance width="480"/>
  <unicode hex="007A"/>
  <anchor x="246" y="0" name="bottom"/>
  <anchor x="240" y="255" name="center"/>
  <anchor x="246" y="510" name="top"/>
  <outline>
    <contour>
      <point x="38" y="0" type="line"/>
      <point x="442" y="0" type="line"/>
      <point x="442" y="70" type="line"/>
      <point x="144" y="70" type="line"/>
      <point x="144" y="74" type="line"/>
      <point x="440" y="447" type="line"/>
      <point x="440" y="510" type="line"/>
      <point x="50" y="510" type="line"/>
      <point x="50" y="440" type="line"/>
      <point x="334" y="440" type="line"/>
      <point x="334" y="436" type="line"/>
      <point x="38" y="63" type="line"/>
    </contour>
  </outline>
</glyph>
<glyph name="registered" format="2">
  <advance width="732.69565"/>
  <unicode hex="00AE"/>
  <outline>
    <contour>
      <point x="365.804" y="-8" type="curve" smooth="yes"/>
      <point x="640.957" y="-8"/>
      <point x="647.587" y="39.152"/>
      <point x="647.587" y="344" type="curve" smooth="yes"/>
      <point x="647.587" y="648.304"/>
      <point x="640.957" y="696"/>
      <point x="365.804" y="696" type="curve" smooth="yes"/>
      <point x="91.196" y="696"/>
      <point x="85.109" y="648.304"/>
      <point x="85.109" y="344" type="curve" smooth="yes"/>
      <point x="85.109" y="39.152"/>
      <point x="91.196" y="-8"/>
    </contour>
    <contour>
      <point x="365.804" y="32.13" type="curve" smooth="yes"/>
      <point x="133.065" y="32.13"/>
      <point x="127.152" y="48.609"/>
      <point x="127.152" y="344" type="curve" smooth="yes"/>
      <point x="127.152" y="638.848"/>
      <point x="133.065" y="655.326"/>
      <point x="365.804" y="655.326" type="curve" smooth="yes"/>
      <point x="599.087" y="655.326"/>
      <point x="605" y="638.848"/>
      <point x="605" y="344" type="curve" smooth="yes"/>
      <point x="605" y="48.609"/>
      <point x="599.087" y="32.13"/>
    </contour>
    <contour>
      <point x="232.826" y="157.543" type="line"/>
      <point x="286.652" y="157.543" type="line"/>
      <point x="286.652" y="301.761" type="line"/>
      <point x="400.587" y="301.761" type="line"/>
      <point x="456.87" y="157.543" type="line"/>
      <point x="516.239" y="157.543" type="line"/>
      <point x="453.326" y="310.478" type="line"/>
      <point x="501.326" y="327.022"/>
      <point x="508.783" y="372.652"/>
      <point x="508.783" y="415.652" type="curve" smooth="yes"/>
      <point x="508.783" y="475.804"/>
      <point x="500.978" y="528.457"/>
      <point x="399.457" y="528.457" type="curve" smooth="yes"/>
      <point x="232.826" y="528.457" type="line"/>
    </contour>
    <contour>
      <point x="286.652" y="348.609" type="line"/>
      <point x="286.652" y="480.522" type="line"/>
      <point x="385.413" y="480.522" type="line" smooth="yes"/>
      <point x="448.239" y="480.522"/>
      <point x="454.413" y="460.022"/>
      <point x="454.413" y="415.109" type="curve" smooth="yes"/>
      <point x="454.413" y="372.826"/>
      <point x="449.957" y="348.609"/>
      <point x="378.5" y="348.609" type="curve" smooth="yes"/>
    </contour>
  </outline>
</glyph>
<glyph name="paragraph" format="2">
  <advance width="587.43478"/>
  <unicode hex="00B6"/>
  <outline>
    <contour>
      <point x="308.674" y="-144" type="line"/>
      <point x="370.761" y="-144" type="line"/>
      <point x="370.761" y="688" type="line"/>
      <point x="308.674" y="688" type="line" smooth="yes"/>
      <point x="75.674" y="688"/>
      <point x="64.674" y="657"/>
      <point x="64.674" y="454" type="curve" smooth="yes"/>
      <point x="64.674" y="251"/>
      <point x="75.674" y="222"/>
      <point x="308.674" y="222" type="curve"/>
    </contour>
    <contour>
      <point x="436.761" y="-144" type="line"/>
      <point x="497.761" y="-144" type="line"/>
      <point x="497.761" y="688" type="line"/>
      <point x="436.761" y="688" type="line"/>
    </contour>
  </outline>
</glyph>
<glyph name="multiply" format="2">
  <advance width="482.21739"/>
  <unicode hex="00D7"/>
  <outline>
    <contour>
      <point x="115.283" y="79.217" type="line"/>
      <point x="240.609" y="205.543" type="line"/>
      <point x="366.935" y="79.217" type="line"/>
      <point x="413.848" y="126.13" type="line"/>
      <point x="287.522" y="252.457" type="line"/>
      <point x="413.848" y="378.783" type="line"/>
      <point x="367.391" y="425.239" type="line"/>
      <point x="241.065" y="298.913" type="line"/>
      <point x="115.283" y="424.696" type="line"/>
      <point x="68.37" y="377.783" type="line"/>
      <point x="194.152" y="252" type="line"/>
      <point x="68.826" y="126.674" type="line"/>
    </contour>
  </outline>
</glyph>
<glyph name="idotless" format="2">
  <advance width="382"/>
  <unicode hex="0131"/>
  <anchor x="191" y="0" name="bottom"/>
  <anchor x="232" y="0" name="ogonek"/>
  <anchor x="191" y="510" name="top"/>
  <outline>
    <contour>
      <point x="150" y="0" type="line"/>
      <point x="232" y="0" type="line"/>
      <point x="232" y="510" type="line"/>
      <point x="150" y="510" type="line"/>
    </contour>
  </outline>
</glyph>
<glyph name="eng" format="2">
  <advance width="598.56522"/>
  <unicode hex="014B"/>
  <outline>
    <contour>
      <point x="335.478" y="-200" type="line"/>
      <point x="468.152" y="-200"/>
      <point x="512.152" y="-190.109"/>
      <point x="512.152" y="-62.783" type="curve" smooth="yes"/>
      <point x="512.152" y="319.457" type="line" smooth="yes"/>
      <point x="512.152" y="455.848"/>
      <point x="488.239" y="518"/>
      <point x="338.196" y="518" type="curve" smooth="yes"/>
      <point x="234.109" y="518"/>
      <point x="190.13" y="484.87"/>
      <point x="169.239" y="436.783" type="curve"/>
      <point x="163.065" y="436.783" type="line"/>
      <point x="159.522" y="510" type="line"/>
      <point x="86.413" y="510" type="line"/>
      <point x="86.413" y="0" type="line"/>
      <point x="167.609" y="0" type="line"/>
      <point x="167.609" y="263.457" type="line" smooth="yes"/>
      <point x="167.609" y="375.587"/>
      <point x="174.13" y="445.239"/>
      <point x="305.109" y="445.239" type="curve" smooth="yes"/>
      <point x="414.109" y="445.239"/>
      <point x="430.957" y="429.304"/>
      <point x="430.957" y="290.543" type="curve" smooth="yes"/>
      <point x="430.957" y="-80.935" type="line" smooth="yes"/>
      <point x="430.957" y="-123.761"/>
      <point x="423.587" y="-136.304"/>
      <point x="335.478" y="-136.304" type="curve"/>
    </contour>
  </outline>
</glyph>
<glyph name="Ohorn" format="2">
  <advance width="716.76087"/>
  <unicode hex="01A0"/>
  <anchor x="475.804" y="688" name="_topright"/>
  <anchor x="358.652" y="0" name="bottom"/>
  <anchor x="358.652" y="688" name="top"/>
  <anchor x="475.804" y="782.196" name="topright"/>
  <outline>
    <contour>
      <point x="475.804" y="648.587" type="line"/>
      <point x="541.87" y="648.587" type="line" smooth="yes"/>
      <point x="639.304" y="648.587"/>
      <point x="656.935" y="671.848"/>
      <point x="656.935" y="758.543" type="curve" smooth="yes"/>
      <point x="656.935" y="782.196" type="line"/>
      <point x="597.848" y="782.196" type="line"/>
      <point x="597.848" y="751" type="line" smooth="yes"/>
      <point x="597.848" y="702"/>
      <point x="591.761" y="688"/>
      <point x="541.87" y="688" type="curve" smooth="yes"/>
      <point x="475.804" y="688" type="line"/>
    </contour>
    <component base="O"/>
  </outline>
</glyph>
<glyph name="jdotless" format="2">
  <advance width="382"/>
  <unicode hex="0237"/>
  <anchor x="191" y="-200" name="bottom"/>
  <anchor x="191" y="510" name="top"/>
  <outline>
    <contour>
      <point x="232" y="510" type="line"/>
      <point x="150" y="510" type="line"/>
      <point x="150" y="-55" type="line" smooth="yes"/>
      <point x="150" y="-118"/>
      <point x="129" y="-130"/>
      <point x="18" y="-130" type="curve"/>
      <point x="18" y="-200" type="line"/>
      <point x="185" y="-200"/>
      <point x="232" y="-167"/>
      <point x="232" y="-48" type="curve" smooth="yes"/>
    </contour>
  </outline>
</glyph>
<glyph name="hungarumlaut" format="2">
  <advance width="347.30435"/>
  <unicode hex="02DD"/>
  <outline>
    <contour>
      <point x="0" y="594.587" type="line"/>
      <point x="52.543" y="594.587" type="line"/>
      <point x="165.804" y="712.478" type="line"/>
      <point x="165.804" y="717.478" type="line"/>
      <point x="88.826" y="717.478" type="line"/>
      <point x="0" y="599.587" type="line"/>
    </contour>
    <contour>
      <point x="180.957" y="594.587" type="line"/>
      <point x="233.5" y="594.587" type="line"/>
      <point x="347.304" y="712.478" type="line"/>
      <point x="347.304" y="717.478" type="line"/>
      <point x="269.783" y="717.478" type="line"/>
      <point x="180.957" y="599.587" type="line"/>
    </contour>
  </outline>
</glyph>
<glyph name="hookabovecomb" format="2">
  <advance width="247.5"/>
  <unicode hex="0309"/>
  <anchor x="117.065" y="510" name="_top"/>
  <anchor x="117.065" y="688" name="top"/>
  <outline>
    <contour>
      <point x="71.739" y="581.13" type="line"/>
      <point x="120.391" y="581.13" type="line"/>
      <point x="120.391" y="603.87"/>
      <point x="122.022" y="606.413"/>
      <point x="161.043" y="617.326" type="curve" smooth="yes"/>
      <point x="185.609" y="624.239" type="line" smooth="yes"/>
      <point x="235.435" y="638.239"/>
      <point x="247.5" y="654.065"/>
      <point x="247.5" y="699.13" type="curve" smooth="yes"/>
      <point x="247.5" y="768.63"/>
      <point x="203.804" y="776.543"/>
      <point x="116.522" y="776.543" type="curve" smooth="yes"/>
      <point x="82.261" y="776.543"/>
      <point x="32.543" y="773.457"/>
      <point x="0" y="768.913" type="curve"/>
      <point x="0" y="725.522" type="line"/>
      <point x="32.739" y="728.522"/>
      <point x="78" y="730.522"/>
      <point x="102.543" y="730.522" type="curve" smooth="yes"/>
      <point x="170.87" y="730.522"/>
      <point x="190.413" y="730.522"/>
      <point x="190.413" y="692.957" type="curve" smooth="yes"/>
      <point x="190.413" y="668.761"/>
      <point x="183.957" y="664.304"/>
      <point x="138.652" y="651.478" type="curve" smooth="yes"/>
      <point x="115.913" y="645.022" type="line" smooth="yes"/>
      <point x="81.196" y="634.935"/>
      <point x="71.739" y="620.957"/>
      <point x="71.739" y="590.5" type="curve" smooth="yes"/>
    </contour>
  </outline>
</glyph>
<glyph name="Omega" format="2">
  <advance width="717.30435"/>
  <unicode hex="03A9"/>
  <anchor x="358.652" y="0" name="bottom"/>
  <anchor x="20" y="688" name="topleft"/>
  <outline>
    <contour>
      <point x="78.87" y="0" type="line"/>
      <point x="303.087" y="0" type="line"/>
      <point x="303.087" y="68.13" type="line"/>
      <point x="178.413" y="84.435"/>
      <point x="164.043" y="149.435"/>
      <point x="164.043" y="360.717" type="curve" smooth="yes"/>
      <point x="164.043" y="595.13"/>
      <point x="177.522" y="621.783"/>
      <point x="359.196" y="621.783" type="curve" smooth="yes"/>
      <point x="539.783" y="621.783"/>
      <point x="553.804" y="594.587"/>
      <point x="553.804" y="360.717" type="curve" smooth="yes"/>
      <point x="553.804" y="148.978"/>
      <point x="539.978" y="84.435"/>
      <point x="414.761" y="68.13" type="curve"/>
      <point x="414.761" y="0" type="line"/>
      <point x="639.522" y="0" type="line"/>
      <point x="639.522" y="74.217" type="line"/>
      <point x="628.913" y="74.217" type="line"/>
      <point x="514.348" y="55.891" type="line"/>
      <point x="514.348" y="61.348" type="line"/>
      <point x="621.652" y="99.239"/>
      <point x="640.891" y="203.065"/>
      <point x="640.891" y="365.065" type="curve" smooth="yes"/>
      <point x="640.891" y="617.413"/>
      <point x="622.717" y="696"/>
      <point x="359.196" y="696" type="curve" smooth="yes"/>
      <point x="95.13" y="696"/>
      <point x="76.957" y="617.413"/>
      <point x="76.957" y="365.065" type="curve" smooth="yes"/>
      <point x="76.957" y="203.065"/>
      <point x="95.739" y="99.239"/>
      <point x="204.043" y="61.348" type="curve"/>
      <point x="204.043" y="55.891" type="line"/>
      <point x="88.935" y="74.217" type="line"/>
      <point x="78.87" y="74.217" type="line"/>
    </contour>
  </outline>
</glyph>
<glyph name="endash" format="2">
  <advance width="472.17391"/>
  <unicode hex="2013"/>
  <outline>
    <contour>
      <point x="56.848" y="270.152" type="line"/>
      <point x="415.326" y="270.152" type="line"/>
      <point x="415.326" y="337.304" type="line"/>
      <point x="56.848" y="337.304" type="line"/>
    </contour>
  </outline>
</glyph>
<glyph name="bullet" format="2">
  <advance width="369.13043"/>
  <unicode hex="2022"/>
  <outline>
    <contour>
      <point x="183.065" y="232.848" type="curve" smooth="yes"/>
      <point x="290.13" y="232.848"/>
      <point x="294.13" y="247.935"/>
      <point x="294.13" y="342" type="curve" smooth="yes"/>
      <point x="294.13" y="438.522"/>
      <point x="290.13" y="454.152"/>
      <point x="183.065" y="454.152" type="curve" smooth="yes"/>
      <point x="79" y="454.152"/>
      <point x="75" y="438.522"/>
      <point x="75" y="342" type="curve" smooth="yes"/>
      <point x="75" y="247.935"/>
      <point x="79" y="232.848"/>
    </contour>
  </outline>
</glyph>
<glyph name="leftArrow" format="2">
  <advance width="883"/>
  <unicode hex="2190"/>
  <outline>
    <contour>
      <point x="321.739" y="175.696" type="line"/>
      <point x="284.174" y="271.783" type="line"/>
      <point x="828" y="271.783" type="line"/>
      <point x="828" y="336.217" type="line"/>
      <point x="284.174" y="336.217" type="line"/>
      <point x="321.739" y="433.304" type="line"/>
      <point x="55" y="304" type="line"/>
    </contour>
  </outline>
</glyph>
<glyph name="fl" format="2">
  <advance width="606.28261"/>
  <unicode hex="FB02"/>
  <anchor x="303.141" y="0" name="caret_1"/>
  <outline>
    <contour>
      <point x="129.848" y="0" type="line"/>
      <point x="211.043" y="0" type="line"/>
      <point x="211.043" y="441.043" type="line"/>
      <point x="342.696" y="441.043" type="line"/>
      <point x="342.696" y="510" type="line"/>
      <point x="211.043" y="510" type="line"/>
      <point x="211.043" y="604.913" type="line" smooth="yes"/>
      <point x="211.043" y="668.739"/>
      <point x="233.435" y="679.848"/>
      <point x="342.696" y="679.848" type="curve"/>
      <point x="342.696" y="742.457" type="line"/>
      <point x="186.043" y="742.457"/>
      <point x="129.848" y="733.174"/>
      <point x="129.848" y="590.761" type="curve" smooth="yes"/>
      <point x="129.848" y="510" type="line"/>
      <point x="26.196" y="510" type="line"/>
      <point x="26.196" y="441.043" type="line"/>
      <point x="129.848" y="441.043" type="line"/>
    </contour>
    <contour>
      <point x="438.674" y="0" type="line"/>
      <point x="519.87" y="0" type="line"/>
      <point x="519.87" y="743" type="line"/>
      <point x="438.674" y="743" type="line"/>
    </contour>
  </outline>
</glyph>
<glyph name="X.001" format="2">
  <advance width="674.54348"/>
  <anchor x="337.543" y="0" name="bottom"/>
  <anchor x="337.543" y="688" name="top"/>
  <outline>
    <contour>
      <point x="29" y="0" type="line"/>
      <point x="127" y="0" type="line"/>
      <point x="332" y="276" type="line"/>
      <point x="340" y="276" type="line"/>
      <point x="544" y="0" type="line"/>
      <point x="645" y="0" type="line"/>
      <point x="390" y="348" type="line"/>
      <point x="642" y="688" type="line"/>
      <point x="544" y="688" type="line"/>
      <point x="343" y="418" type="line"/>
      <point x="335" y="418" type="line"/>
      <point x="135" y="688" type="line"/>
      <point x="33" y="688" type="line"/>
      <point x="285" y="345" type="line"/>
    </contour>
  </outline>
</glyph>
<glyph name="Z.001" format="2">
  <advance width="643"/>
  <anchor x="317" y="0" name="bottom"/>
  <anchor x="317" y="344" name="center"/>
  <anchor x="317" y="688" name="top"/>
  <outline>
    <contour>
      <point x="75" y="0" type="line"/>
      <point x="568" y="0" type="line"/>
      <point x="568" y="74" type="line"/>
      <point x="183" y="74" type="line"/>
      <point x="562" y="622" type="line"/>
      <point x="562" y="688" type="line"/>
      <point x="86" y="688" type="line"/>
      <point x="86" y="614" type="line"/>
      <point x="454" y="614" type="line"/>
      <point x="75" y="66" type="line"/>
    </contour>
  </outline>
</glyph>
<glyph name="c.003" format="2">
  <advance width="528"/>
  <anchor x="271" y="0" name="bottom"/>
  <anchor x="271" y="510" name="top"/>
  <outline>
    <contour>
      <point x="324" y="-8" type="curve" smooth="yes"/>
      <point x="374" y="-8"/>
      <point x="431" y="-2"/>
      <point x="465" y="7" type="curve"/>
      <point x="465" y="75" type="line"/>
      <point x="428" y="67"/>
      <point x="367" y="62"/>
      <point x="319" y="62" type="curve" smooth="yes"/>
      <point x="196" y="62"/>
      <point x="187" y="74"/>
      <point x="187" y="231" type="curve" smooth="yes"/>
      <point x="187" y="279" type="line" smooth="yes"/>
      <point x="187" y="436"/>
      <point x="196" y="448"/>
      <point x="319" y="448" type="curve" smooth="yes"/>
      <point x="365" y="448"/>
      <point x="424" y="443"/>
      <point x="460" y="435" type="curve"/>
      <point x="460" y="503" type="line"/>
      <point x="427" y="512"/>
      <point x="372" y="518"/>
      <point x="324" y="518" type="curve" smooth="yes"/>
      <point x="138" y="518"/>
      <point x="105" y="479"/>
      <point x="105" y="259" type="curve" smooth="yes"/>
      <point x="105" y="251" type="line" smooth="yes"/>
      <point x="105" y="31"/>
      <point x="138" y="-8"/>
    </contour>
  </outline>
</glyph>
<glyph name="dotaccentcomb.case" format="2">
  <advance width="76.69565"/>
  <anchor x="38.848" y="510" name="_top"/>
  <anchor x="38.848" y="675" name="top"/>
  <outline>
    <contour>
      <point x="0" y="628.174" type="line"/>
      <point x="76.696" y="628.174" type="line"/>
      <point x="76.696" y="708.739" type="line"/>
      <point x="0" y="708.739" type="line"/>
    </contour>
  </outline>
</glyph>
<glyph name="exclam.ss02" format="2">
  <advance width="794"/>
  <outline>
    <contour>
      <point x="397" y="-8" type="curve" smooth="yes"/>
      <point x="591" y="-8"/>
      <point x="749" y="150"/>
      <point x="749" y="344" type="curve" smooth="yes"/>
      <point x="749" y="538"/>
      <point x="591" y="696"/>
      <point x="397" y="696" type="curve" smooth="yes"/>
      <point x="203" y="696"/>
      <point x="45" y="538"/>
      <point x="45" y="344" type="curve" smooth="yes"/>
      <point x="45" y="150"/>
      <point x="203" y="-8"/>
    </contour>
    <contour>
      <point x="363" y="109" type="line"/>
      <point x="431" y="109" type="line"/>
      <point x="431" y="191" type="line"/>
      <point x="363" y="191" type="line"/>
    </contour>
    <contour>
      <point x="397" y="37" type="curve" smooth="yes"/>
      <point x="228" y="37"/>
      <point x="90" y="175"/>
      <point x="90" y="344" type="curve" smooth="yes"/>
      <point x="90" y="513"/>
      <point x="228" y="651"/>
      <point x="397" y="651" type="curve" smooth="yes"/>
      <point x="566" y="651"/>
      <point x="704" y="513"/>
      <point x="704" y="344" type="curve" smooth="yes"/>
      <point x="704" y="175"/>
      <point x="566" y="37"/>
    </contour>
    <contour>
      <point x="377" y="268" type="curve"/>
      <point x="417" y="268" type="line"/>
      <point x="423.913" y="314.848"/>
      <point x="431" y="400.674"/>
      <point x="431" y="480" type="curve" smooth="yes"/>
      <point x="431" y="579" type="line"/>
      <point x="363" y="579" type="line"/>
      <point x="363" y="480" type="line" smooth="yes"/>
      <point x="363" y="400.674"/>
      <point x="370.087" y="314.848"/>
    </contour>
  </outline>
</glyph>
<glyph name="o.002" format="2">
  <advance width="658"/>
  <anchor x="329" y="0" name="bottom"/>
  <anchor x="329" y="255" name="center"/>
  <anchor x="564" y="10" name="ogonek"/>
  <anchor x="329" y="510" name="top"/>
  <anchor x="603" y="510" name="topright"/>
  <outline>
    <contour>
      <point x="329" y="-8" type="curve" smooth="yes"/>
      <point x="519" y="-8"/>
      <point x="553" y="31"/>
      <point x="553" y="251" type="curve" smooth="yes"/>
      <point x="553" y="259" type="line" smooth="yes"/>
      <point x="553" y="479"/>
      <point x="519" y="518"/>
      <point x="329" y="518" type="curve" smooth="yes"/>
      <point x="138" y="518"/>
      <point x="105" y="471"/>
      <point x="105" y="259" type="curve" smooth="yes"/>
      <point x="105" y="251" type="line" smooth="yes"/>
      <point x="105" y="31"/>
      <point x="139" y="-8"/>
    </contour>
    <contour>
      <point x="329" y="62" type="curve" smooth="yes"/>
      <point x="197" y="62"/>
      <point x="187" y="73"/>
      <point x="187" y="231" type="curve" smooth="yes"/>
      <point x="187" y="279" type="line" smooth="yes"/>
      <point x="187" y="437"/>
      <point x="197" y="448"/>
      <point x="329" y="448" type="curve" smooth="yes"/>
      <point x="461" y="448"/>
      <point x="471" y="437"/>
      <point x="471" y="279" type="curve" smooth="yes"/>
      <point x="471" y="231" type="line" smooth="yes"/>
      <point x="471" y="73"/>
      <point x="461" y="62"/>
    </contour>
  </outline>
</glyph>
<glyph name="orn.010" format="2">
  <advance width="794"/>
  <outline>
    <contour>
      <point x="397" y="0" type="curve" smooth="yes"/>
      <point x="749" y="0" type="line"/>
      <point x="749" y="348" type="line" smooth="yes"/>
      <point x="749" y="553"/>
      <point x="604" y="696"/>
      <point x="397" y="696" type="curve" smooth="yes"/>
      <point x="190" y="696"/>
      <point x="45" y="553"/>
      <point x="45" y="348" type="curve" smooth="yes"/>
      <point x="45" y="144"/>
      <point x="190" y="0"/>
    </contour>
  </outline>
</glyph>
<glyph name="orn.016" format="2">
  <advance width="565"/>
  <outline>
    <contour>
      <point x="-1" y="628" type="line"/>
      <point x="566" y="628" type="line"/>
      <point x="566" y="688" type="line"/>
      <point x="-1" y="688" type="line"/>
    </contour>
    <contour>
      <point x="-1" y="0" type="line"/>
      <point x="566" y="0" type="line"/>
      <point x="566" y="60" type="line"/>
      <point x="-1" y="60" type="line"/>
    </contour>
  </outline>
</glyph>
<glyph name="orn.019" format="2">
  <advance width="549"/>
  <outline>
    <contour>
      <point x="338" y="46" type="line"/>
      <point x="437" y="108"/>
      <point x="504" y="218"/>
      <point x="504" y="344" type="curve" smooth="yes"/>
      <point x="504" y="469"/>
      <point x="437" y="580"/>
      <point x="338" y="642" type="curve"/>
      <point x="306" y="591" type="line"/>
      <point x="388" y="540"/>
      <point x="444" y="448"/>
      <point x="444" y="344" type="curve" smooth="yes"/>
      <point x="444" y="239"/>
      <point x="389" y="148"/>
      <point x="306" y="96" type="curve"/>
    </contour>
    <contour>
      <point x="154" y="234" type="curve" smooth="yes"/>
      <point x="219" y="234"/>
      <point x="264" y="279"/>
      <point x="264" y="344" type="curve" smooth="yes"/>
      <point x="264" y="409"/>
      <point x="219" y="454"/>
      <point x="154" y="454" type="curve" smooth="yes"/>
      <point x="89" y="454"/>
      <point x="44" y="409"/>
      <point x="44" y="344" type="curve" smooth="yes"/>
      <point x="44" y="279"/>
      <point x="89" y="234"/>
    </contour>
    <contour>
      <point x="154" y="294" type="curve" smooth="yes"/>
      <point x="126" y="294"/>
      <point x="104" y="316"/>
      <point x="104" y="344" type="curve" smooth="yes"/>
      <point x="104" y="373"/>
      <point x="126" y="394"/>
      <point x="154" y="394" type="curve" smooth="yes"/>
      <point x="183" y="394"/>
      <point x="204" y="373"/>
      <point x="204" y="344" type="curve" smooth="yes"/>
      <point x="204" y="316"/>
      <point x="183" y="294"/>
    </contour>
    <contour>
      <point x="275" y="147" type="line"/>
      <point x="340" y="188"/>
      <point x="384" y="261"/>
      <point x="384" y="344" type="curve" smooth="yes"/>
      <point x="384" y="427"/>
      <point x="340" y="500"/>
      <point x="274" y="541" type="curve"/>
      <point x="242" y="490" type="line"/>
      <point x="291" y="459"/>
      <point x="324" y="405"/>
      <point x="324" y="344" type="curve" smooth="yes"/>
      <point x="324" y="282"/>
      <point x="291" y="229"/>
      <point x="243" y="198" type="curve"/>
    </contour>
  </outline>
</glyph>
<glyph name="six.dnom" format="2">
  <advance width="378"/>
  <outline>
    <contour>
      <point x="200.826" y="-4" type="curve" smooth="yes"/>
      <point x="321.913" y="-4"/>
      <point x="346.087" y="24.348"/>
      <point x="346.087" y="121.261" type="curve" smooth="yes"/>
      <point x="346.087" y="216.348"/>
      <point x="307.37" y="228.978"/>
      <point x="214.978" y="228.978" type="curve" smooth="yes"/>
      <point x="142.674" y="228.978"/>
      <point x="119.848" y="213.891"/>
      <point x="109.022" y="202.522" type="curve"/>
      <point x="105.022" y="202.522" type="line"/>
      <point x="105.022" y="314.587"/>
      <point x="116.935" y="332.326"/>
      <point x="217.174" y="332.326" type="curve" smooth="yes"/>
      <point x="243.457" y="332.326"/>
      <point x="286.37" y="329.326"/>
      <point x="324.543" y="326.326" type="curve"/>
      <point x="324.543" y="372" type="line"/>
      <point x="284" y="378.087"/>
      <point x="235.37" y="382.087"/>
      <point x="205.826" y="382.087" type="curve" smooth="yes"/>
      <point x="118.739" y="382.087"/>
      <point x="74.739" y="367.457"/>
      <point x="56.196" y="309" type="curve" smooth="yes"/>
      <point x="46.652" y="279.543"/>
      <point x="44.109" y="239.543"/>
      <point x="44.109" y="185.63" type="curve" smooth="yes"/>
      <point x="44.109" y="132.913"/>
      <point x="46.196" y="94.283"/>
      <point x="52.739" y="69.826" type="curve" smooth="yes"/>
      <point x="71.37" y="3.543"/>
      <point x="115.37" y="-4"/>
    </contour>
    <contour>
      <point x="197.37" y="44.217" type="curve" smooth="yes"/>
      <point x="126.674" y="44.217"/>
      <point x="107.022" y="50.043"/>
      <point x="107.022" y="123.457" type="curve" smooth="yes"/>
      <point x="107.022" y="166.935"/>
      <point x="114.391" y="180.761"/>
      <point x="197.37" y="180.761" type="curve" smooth="yes"/>
      <point x="273.065" y="180.761"/>
      <point x="287.804" y="176.304"/>
      <point x="287.804" y="111.261" type="curve" smooth="yes"/>
      <point x="287.804" y="47.674"/>
      <point x="270.609" y="44.217"/>
    </contour>
  </outline>
</glyph>
<glyph name="v.001" format="2">
  <advance width="532"/>
  <anchor x="265.348" y="0" name="bottom"/>
  <anchor x="265.348" y="510" name="top"/>
  <outline>
    <contour>
      <point x="216" y="0" type="line"/>
      <point x="316" y="0" type="line"/>
      <point x="505" y="510" type="line"/>
      <point x="420" y="510" type="line"/>
      <point x="268" y="85" type="line"/>
      <point x="264" y="85" type="line"/>
      <point x="112" y="510" type="line"/>
      <point x="27" y="510" type="line"/>
    </contour>
  </outline>
</glyph>
